<svg id="Layer_1" data-name="Layer 1" xmlns="http://www.w3.org/2000/svg" viewBox="0 0 531.34 307.82"><defs><style>.cls-1{fill:#e8e6e3;}.cls-2{fill:#3d3737;}.cls-3{fill:#f5a333;}.cls-4{fill:#cd4b27;}.cls-5{fill:#f5ce30;}.cls-6{fill:#634018;}.cls-7{fill:#080e0c;}.cls-8{fill:#ded8d2;}.cls-9{fill:#aeadad;}.cls-10{fill:#fcf9f7;}</style></defs><title>seagull</title><g id="UT"><g id="California_Gull" data-name="California Gull"><path class="cls-1" d="M97.34,158l10.43-26.94,22.8-21.47,23.68-5.25L184,111.65s17.59,21.18,17.95,23.07S209.08,163,209.08,163l-2.51,27.35-3.23,19.72s1.08,8.25,2.15,8.25,10,3.58,10,3.58l11.88,6.93,136.93,58.92,78.11,65.72,59.86,58.1-53.8-16.51,4.7,6.29L414.5,393l-20.44-1.46-32.94-1.66-19,3.12-26.88,5.84-34.43,4.67-40.84-1.25-27.47-.84L161.13,393l-32.55-19.4L97.92,339.62,87.16,315.37V269.69l4.44-36,13.34-27.08,18.19-20.27-5.61-8.73Z" transform="translate(-58.72 -103.78)"/><path class="cls-1" d="M531,379.23c.41-1.62,29.91,3.23,29.91,3.23l18.6-3.56-31.13-9-23-2Z" transform="translate(-58.72 -103.78)"/><polygon class="cls-2" points="394.76 227.44 466.58 243.99 515.08 249.72 489.62 266.15 472.24 275.44 387.32 271.4 357.21 255.64 394.76 227.44"/><polygon class="cls-3" points="38.62 54.26 16.14 69.25 1.15 80.2 0 98.65 19.31 93.46 38.62 76.45 58.8 73.86 78.4 54.26 36.89 61.75 38.62 54.26"/><polygon class="cls-4" points="18.16 82.59 10.69 85.08 5.61 97.14 19.31 93.46 22.91 89.86 17.93 87.12 18.16 82.59"/><path class="cls-5" d="M59.57,188.89l5.76,4.76-2.88,7.78-3.73,1S59.68,187.09,59.57,188.89Z" transform="translate(-58.72 -103.78)"/><polygon class="cls-6" points="12.5 78.96 16.12 73.75 22.91 71.49 12.5 78.96"/><path class="cls-6" d="M101.51,172.1,120.77,163s-10.2,6.34-9.63,6.34S101.51,172.1,101.51,172.1Z" transform="translate(-58.72 -103.78)"/><polygon class="cls-4" points="69.36 39.77 70.72 31.84 78.4 28.9 85.21 31.16 83.4 36.83 78.4 40.91 69.36 39.77"/><polygon class="cls-7" points="71.85 36.6 72.98 33.43 78.4 30.94 80.91 32.75 80.91 34.9 77.29 38.53 71.85 36.6"/><polygon class="cls-8" points="86.35 30.03 86.35 33.2 98.13 27.31 82.95 27.31 86.35 30.03"/><path class="cls-9" d="M145.07,252.72s48-20.62,47.58-21.83,34.76-2,34.76-2l42.44,13.74,27.15,2,65.82,41.64h20.61l48.91,19.4H419.81l22.64,12.53,8.89,20.21H435.57l7.68,7.68-31.52,16.57-36.79,5.25L360.39,374H317.55l-46.08,8.48H244.79l-51.33-28.29s-13.34-10.51-13.34-9.3S153,334.77,153,334.77l-18.59-24.08,2.67-18.77,21.58-6.46-14.95-17Z" transform="translate(-58.72 -103.78)"/><polygon class="cls-10" points="319.46 261.3 355.03 254.43 376.85 234.62 386.15 228.56 359.47 206.9 378.16 211.33 361.09 201.88 376.45 201.88 396.66 211.99 380.09 208.75 408.78 231.59 389.79 220.07 400.7 236.24 391.28 231.59 399.89 244.73 392.62 240.69 399.49 248.77 392.62 250.38 402.32 252.81 394.64 252.81 397.06 261.3 389.79 263.32 383.72 269.79 371.6 267.36 358.66 269.79 334.82 266.55 314 261.9 319.46 261.3"/><polygon class="cls-10" points="495.69 260.09 502.96 254.43 492.05 247.15 508.22 253.62 513.27 248.57 531.34 260.09 515.89 260.09 506.19 264.13 495.69 260.09"/><polygon class="cls-10" points="338.45 278.68 441.12 299.7 412.83 284.34 338.45 278.68"/><polygon class="cls-10" points="222.05 299.7 218.46 297.6 186.07 278.68 121.4 241.09 94.32 230.98 75.73 206.9 78.4 188.14 99.98 181.67 85.03 164.7 86.35 148.93 118.72 134.7 95.53 125.08 117.77 80.62 123.83 68.32 98.13 82.59 64.41 82.59 46.22 102.86 32.88 129.94 28.44 165.91 28.44 211.58 39.2 235.83 69.86 269.79 102.41 289.19 153.74 297.6 222.05 299.7"/><polygon class="cls-10" points="34.59 61.64 38.62 53.67 49.05 26.72 71.85 5.25 95.53 0 125.24 7.28 130.7 28.31 106.04 26.72 90.54 21.83 69.36 26.72 57.89 42.94 78.4 44.16 109.28 37.93 120.83 49.48 111.3 63.19 80.91 70.89 55.77 73.66 75.73 54.15 67.24 50.12 43.8 63.19 34.59 61.64"/><polygon class="cls-8" points="59.62 44.76 67.32 43.17 69.86 36.84 69.86 28.9 61.43 40 55.77 42.04 59.62 44.76"/><polygon class="cls-4" points="58.93 60.46 50.04 60.3 67.24 50.71 75.73 54.74 60.17 69.94 58.93 60.46"/></g></g></svg>